<svg xmlns="http://www.w3.org/2000/svg" xmlns:xlink="http://www.w3.org/1999/xlink" width="1024" height="620" viewBox="0 0 1024 620">
  <defs>
    <style>
      .cls-1 {
        isolation: isolate;
      }

      .cls-2 {
        fill: none;
      }

      .cls-3, .cls-4 {
        fill: #51b2fb;
      }

      .cls-3, .cls-37 {
        opacity: 0.1;
      }

      .cls-4 {
        opacity: 0.2;
      }

      .cls-5 {
        fill: #e3ebfc;
      }

      .cls-6 {
        fill: #ccddfa;
      }

      .cls-7 {
        fill: #fafbff;
      }

      .cls-8 {
        fill: #80a7f6;
      }

      .cls-9 {
        fill: #9fbcfb;
      }

      .cls-10 {
        fill: #b8d0f9;
      }

      .cls-11, .cls-27, .cls-36 {
        fill: #207bff;
      }

      .cls-11, .cls-28 {
        opacity: 0.4;
      }

      .cls-12 {
        fill: #004bff;
        opacity: 0.5;
        mix-blend-mode: multiply;
      }

      .cls-13 {
        fill: #c5d8fa;
      }

      .cls-14 {
        fill: url(#_ÂÁ_Ï_ÌÌ_È_ËÂÌÚ_30);
      }

      .cls-15 {
        fill: #4aebff;
      }

      .cls-16, .cls-35 {
        fill: #fff;
      }

      .cls-17 {
        fill: #bef9ff;
      }

      .cls-18 {
        fill: url(#linear-gradient);
      }

      .cls-19 {
        fill: #ec1c24;
      }

      .cls-20 {
        fill: url(#linear-gradient-2);
      }

      .cls-21 {
        fill: url(#linear-gradient-3);
      }

      .cls-22 {
        fill: url(#linear-gradient-4);
      }

      .cls-23 {
        fill: url(#linear-gradient-5);
      }

      .cls-24 {
        fill: url(#linear-gradient-6);
      }

      .cls-25 {
        fill: url(#linear-gradient-7);
      }

      .cls-26 {
        fill: #93b4fb;
      }

      .cls-28 {
        mix-blend-mode: lighten;
        fill: url(#radial-gradient);
      }

      .cls-29 {
        fill: #00ffda;
      }

      .cls-30 {
        fill: #7fd1ca;
      }

      .cls-31 {
        fill: #1e1e1e;
      }

      .cls-32 {
        fill: url(#_ÂÁ_Ï_ÌÌ_È_ËÂÌÚ_14);
      }

      .cls-33 {
        fill: url(#_ÂÁ_Ï_ÌÌ_È_ËÂÌÚ_18);
      }

      .cls-34 {
        fill: #4880f8;
      }

      .cls-35 {
        opacity: 0.8;
      }

      .cls-36 {
        opacity: 0.72;
      }

      .cls-37, .cls-38, .cls-39, .cls-40 {
        fill: #3ae6fb;
      }

      .cls-38 {
        opacity: 0.3;
      }

      .cls-40 {
        opacity: 0.7;
      }
    </style>
    <radialGradient id="_ÂÁ_Ï_ÌÌ_È_ËÂÌÚ_30" data-name="¡ÂÁ˚ÏˇÌÌ˚È „‡‰ËÂÌÚ 30" cx="4206.97" cy="438.4" r="7.37" gradientTransform="matrix(-1.01, 0, 0, 1, 5076.83, 0)" gradientUnits="userSpaceOnUse">
      <stop offset="0" stop-color="#4aebff"/>
      <stop offset="1" stop-color="#00709e"/>
    </radialGradient>
    <linearGradient id="linear-gradient" x1="-110.63" y1="309.66" x2="-110.63" y2="350.3" gradientTransform="matrix(-1.01, 0, 0, 1, 713.66, 0)" gradientUnits="userSpaceOnUse">
      <stop offset="0.02" stop-color="#dd2a21"/>
      <stop offset="0.06" stop-color="#c8201b"/>
      <stop offset="0.1" stop-color="#b71717"/>
      <stop offset="0.15" stop-color="#ac1113"/>
      <stop offset="0.22" stop-color="#a50e12"/>
      <stop offset="0.43" stop-color="#a30d11"/>
      <stop offset="0.79" stop-color="#6b0006"/>
    </linearGradient>
    <linearGradient id="linear-gradient-2" x1="-122.43" y1="311.47" x2="-122.43" y2="340.64" gradientTransform="matrix(-1.01, 0, 0, 1, 713.66, 0)" gradientUnits="userSpaceOnUse">
      <stop offset="0" stop-color="#ad1a27"/>
      <stop offset="0.08" stop-color="#9e151f"/>
      <stop offset="0.28" stop-color="#7d090e"/>
      <stop offset="0.44" stop-color="#680304"/>
      <stop offset="0.56" stop-color="#610000"/>
      <stop offset="0.73" stop-color="#520000"/>
      <stop offset="1" stop-color="#3f0000"/>
    </linearGradient>
    <linearGradient id="linear-gradient-3" x1="1048.25" y1="326.49" x2="1067.67" y2="326.49" gradientTransform="translate(-264.38) scale(1.01 1)" gradientUnits="userSpaceOnUse">
      <stop offset="0" stop-color="#be1349"/>
      <stop offset="0.24" stop-color="#be124e"/>
      <stop offset="0.25" stop-color="#be124e"/>
      <stop offset="1" stop-color="#7a0025"/>
    </linearGradient>
    <linearGradient id="linear-gradient-4" x1="1042.51" y1="336.18" x2="1067.75" y2="336.18" gradientTransform="translate(-264.38) scale(1.01 1)" gradientUnits="userSpaceOnUse">
      <stop offset="0" stop-color="#282881"/>
      <stop offset="0.27" stop-color="#26257d"/>
      <stop offset="0.55" stop-color="#1f1b70"/>
      <stop offset="0.84" stop-color="#150c5b"/>
      <stop offset="1" stop-color="#0d004c"/>
    </linearGradient>
    <linearGradient id="linear-gradient-5" x1="1048.48" y1="336.18" x2="1067.66" y2="336.18" xlink:href="#linear-gradient-3"/>
    <linearGradient id="linear-gradient-6" x1="1052.36" y1="326.41" x2="1076.47" y2="326.41" xlink:href="#linear-gradient-4"/>
    <linearGradient id="linear-gradient-7" x1="-104.03" y1="335.22" x2="-104.03" y2="321.41" gradientTransform="matrix(-1.01, 0, 0, 1, 713.66, 0)" gradientUnits="userSpaceOnUse">
      <stop offset="0" stop-color="#ed2d24"/>
      <stop offset="0.12" stop-color="#ed2824"/>
      <stop offset="0.25" stop-color="#ec1c24"/>
      <stop offset="1" stop-color="#74020d"/>
    </linearGradient>
    <radialGradient id="radial-gradient" cx="2647.57" cy="582.91" r="15.61" gradientTransform="matrix(-0.75, 0.02, 0.03, 0.82, 2896.75, -206.49)" gradientUnits="userSpaceOnUse">
      <stop offset="0" stop-color="#00ddde" stop-opacity="0.52"/>
      <stop offset="0.09" stop-color="#2de6e7" stop-opacity="0.65"/>
      <stop offset="0.2" stop-color="#63f1f1" stop-opacity="0.8"/>
      <stop offset="0.3" stop-color="#8af8f9" stop-opacity="0.91"/>
      <stop offset="0.38" stop-color="#a2fdfd" stop-opacity="0.98"/>
      <stop offset="0.43" stop-color="#abffff"/>
      <stop offset="0.46" stop-color="#9ffcfd"/>
      <stop offset="0.51" stop-color="#7ff6f6"/>
      <stop offset="0.58" stop-color="#4aebeb"/>
      <stop offset="0.66" stop-color="#03dcdd"/>
      <stop offset="0.66" stop-color="#00dbdc"/>
      <stop offset="0.69" stop-color="#08dcdd" stop-opacity="0.97"/>
      <stop offset="0.74" stop-color="#1fdfe0" stop-opacity="0.88"/>
      <stop offset="0.8" stop-color="#44e5e5" stop-opacity="0.73"/>
      <stop offset="0.87" stop-color="#78eced" stop-opacity="0.53"/>
      <stop offset="0.94" stop-color="#baf5f6" stop-opacity="0.27"/>
      <stop offset="1" stop-color="#fff" stop-opacity="0"/>
    </radialGradient>
    <linearGradient id="_ÂÁ_Ï_ÌÌ_È_ËÂÌÚ_14" data-name="¡ÂÁ˚ÏˇÌÌ˚È „‡‰ËÂÌÚ 14" x1="4117.3" y1="424.02" x2="4199.32" y2="424.02" gradientTransform="matrix(-1.01, -0.05, -0.05, 1, 5051.99, 13.43)" gradientUnits="userSpaceOnUse">
      <stop offset="0" stop-color="#003a6b"/>
      <stop offset="1" stop-color="#00204c"/>
    </linearGradient>
    <linearGradient id="_ÂÁ_Ï_ÌÌ_È_ËÂÌÚ_18" data-name="¡ÂÁ˚ÏˇÌÌ˚È „‡‰ËÂÌÚ 18" x1="4180.71" y1="193.51" x2="4222.27" y2="263.53" gradientTransform="matrix(-1.01, 0, 0, 1, 5076.83, 0)" gradientUnits="userSpaceOnUse">
      <stop offset="0" stop-color="#cbd7e1"/>
      <stop offset="0.05" stop-color="#aec0d0"/>
      <stop offset="0.15" stop-color="#7998b2"/>
      <stop offset="0.26" stop-color="#4e7698"/>
      <stop offset="0.35" stop-color="#2c5c85"/>
      <stop offset="0.44" stop-color="#144976"/>
      <stop offset="0.53" stop-color="#053e6e"/>
      <stop offset="0.6" stop-color="#003a6b"/>
      <stop offset="1" stop-color="#00204c"/>
    </linearGradient>
  </defs>
  <title>robot1</title>
  <g class="cls-1">
    <g id="prosabot">
      <g id="fondo">
        <rect class="cls-2" width="1024" height="620"/>
      </g>
      <g id="sombra">
        <ellipse class="cls-3" cx="857.25" cy="480.73" rx="59.57" ry="13.27"/>
        <ellipse class="cls-4" cx="857.25" cy="480.73" rx="46.41" ry="8.44"/>
        <path class="cls-4" d="M829.31,480.73c0,2.8,12.51,5.08,27.94,5.08s27.94-2.28,27.94-5.08-12.51-5.08-27.94-5.08S829.31,477.92,829.31,480.73Z"/>
      </g>
      <g id="brazoIzquierdo">
        <g>
          <path class="cls-5" d="M748.32,345.19c18.37-38.68,39.13-51.55,43.89-54.1a3.39,3.39,0,0,1,2.3-.33c2.93.63,10.2,3.47,14.9,16.45,3.25,9-1.42,20.67-2,21.13-6.22,4.83-45.32,35.25-56.41,46.3C738.91,386.67,740.48,361.72,748.32,345.19Z"/>
          <path class="cls-6" d="M809.45,307.27a36.6,36.6,0,0,0-5.09-9.75c.56,1.18,1.1,2.46,1.61,3.87,4.1,11.31-.51,16.9-3.8,20.69-11.8,13.55-41.59,36.45-51.86,53.29.23-.21.46-.43.7-.67,11.1-11.06,50.2-41.48,56.42-46.3C808,327.93,812.7,316.23,809.45,307.27Z"/>
          <path class="cls-7" d="M785.28,304.56c-22.44,8.56-39.84,56.49-39.84,56.49s20.79-30.52,33.79-42S792.94,301.64,785.28,304.56Z"/>
          <path class="cls-6" d="M757.65,368c-.79,2.86-1.72,5.14-1.93,7.09-.07.67,2.3,4.71,2.4,4.38,1-2.92,7.32-17.71,11.1-20.85C770.56,357.53,758.44,365.18,757.65,368Z"/>
          <path class="cls-8" d="M769.44,359.23a.55.55,0,0,1-.31-.38c-1.71-8.88-8.77-17.93-18.48-17.21a.5.5,0,0,1-.53-.46.47.47,0,0,1,.43-.53c10.28-.76,17.74,8.73,19.54,18a.48.48,0,0,1-.38.57A.48.48,0,0,1,769.44,359.23Z"/>
        </g>
        <path class="cls-9" d="M795.11,311.34c-6.11-12-7-23.79-2.06-26.3s14,5.19,20.1,17.2,7,23.62,2.06,26.31C808.15,332.43,801.23,323.36,795.11,311.34Z"/>
      </g>
      <g id="torso">
        <path class="cls-5" d="M911.13,279.6c5.76-.37,26.11,19.88,20,39.53s-40.79,85.21-48.64,108.17S869.91,455.91,858.75,458s-28,2.85-47.6-37.68-22.57-86-23.45-107.67,1.39-30.21,9-32.67C814.47,274.21,911.13,279.6,911.13,279.6Z"/>
        <path class="cls-7" d="M819,415.54c-15.16-42.64-13.34-88.46-11.93-110.18.94-14.43,2.66-22.95,6-27.52,16.16-.9,39.76-.51,59.75.13-10.69,28-26.49,75.13-29.12,123.68-1.76,32.4,2.75,48.23,9,56.33C842.55,456,830.33,447.26,819,415.54Z"/>
        <path class="cls-10" d="M795,281.77c0,4.2,29.91,10.72,60.09,10.77s60.13-6.38,60.13-10.58-29.92-4.58-60.1-4.63S795,277.57,795,281.77Z"/>
        <path class="cls-11" d="M813.26,282.62c0,2.91,20.6,7.42,41.39,7.46s41.42-4.41,41.42-7.32-20.61-3.17-41.4-3.21S813.26,279.72,813.26,282.62Z"/>
        <path class="cls-12" d="M825.91,284.13c0,1.11,14.21,2.52,28.06,2.55s27.11-1.35,27.11-2.46-13.25-1.55-27.1-1.57S825.91,283,825.91,284.13Z"/>
        <path class="cls-13" d="M870.05,432.05c3.21-17.19,8-73.37,19.37-113,5.71-19.87,19.14-33.89,32.13-29.45,9.23,3.15,12.88,18.93,9.56,29.56-6.12,19.64-40.79,85.21-48.64,108.17S869.91,455.91,858.75,458c-5.75,1.07-13,1.78-21.38-3.31C848.69,456.45,864.74,460.5,870.05,432.05Z"/>
        <path class="cls-14" d="M830.1,440.41a20.62,20.62,0,0,0,6.88,1.13,31.6,31.6,0,0,0,7.7-.56c1.43-.36,2.68-1.28,2.68-2.84h0a2.77,2.77,0,0,0-2.69-2.83s-5.92.66-7.36.64a53.13,53.13,0,0,1-7.48-.69c-1.48,0-2.86.43-2.42,2.54C827.62,438.78,828.31,439.75,830.1,440.41Z"/>
        <path class="cls-15" d="M831.05,440.1a21.18,21.18,0,0,0,5.94.8,33.7,33.7,0,0,0,6.66-.4c1.24-.26,2.32-.91,2.32-2h0a2.2,2.2,0,0,0-2.33-2s-5.11.47-6.36.46a54,54,0,0,1-6.46-.5c-1.28,0-2.48.31-2.1,1.82C828.9,438.93,829.5,439.63,831.05,440.1Z"/>
        <path class="cls-8" d="M838.64,427.45c13.6,0,30.27-2.92,48.26-10.25a.48.48,0,0,0-.37-.89C853,430,824.19,428.24,811.58,420.85a.48.48,0,0,0-.66.17.48.48,0,0,0,.17.65C817.09,425.19,826.67,427.45,838.64,427.45Z"/>
        <path class="cls-16" d="M839,426.39c13.6,0,30.27-2.93,48.25-10.26a.48.48,0,0,0,.26-.63.49.49,0,0,0-.63-.26c-33.5,13.67-62.33,11.94-74.94,4.54a.48.48,0,0,0-.66.17.46.46,0,0,0,.17.65C817.44,424.12,827,426.39,839,426.39Z"/>
        <path class="cls-7" d="M790.23,290.68c-2.57,52,5,76.55,5,76.55S788,328,794.65,290C795.56,284.82,790.63,282.56,790.23,290.68Z"/>
        <path class="cls-16" d="M910.62,287.05s-6,3.56-27.74,5.57-50.46,1.62-50.46,1.62,26.43,3.48,50.56.9S910.62,287.05,910.62,287.05Z"/>
        <path class="cls-17" d="M833.79,436.75c1.06.09,2.28.16,3.49.17s6.36-.46,6.36-.46a2.63,2.63,0,0,1,.49.05l-2.35,4.25a45.16,45.16,0,0,1-4.79.14,21.58,21.58,0,0,1-5.53-.7Z"/>
        <g>
          <path class="cls-18" d="M839,326.28a18.35,18.35,0,0,0-11.54-17,19.45,19.45,0,0,0-2,.26,17,17,0,0,0-14.17,16.1c0,.18,0,.36,0,.55v.19h0a10.51,10.51,0,0,1,10.55-10.45,10.62,10.62,0,0,1,3.45.57c-1-.37-1-.37.06,0a10.28,10.28,0,0,1,3.56-.62A10.06,10.06,0,0,1,839,326.28v.1c0,5.65-4.08,10.27-10,10.27a10.06,10.06,0,0,1-3.25-.52,10.56,10.56,0,0,1-14.47-9.55A16.79,16.79,0,0,0,825.32,343a21.25,21.25,0,0,0,2.16.26A18.35,18.35,0,0,0,839,326.28Z"/>
          <path class="cls-19" d="M832.36,326.41a10.46,10.46,0,0,1-6.63,9.72,10.06,10.06,0,0,0,3.25.52c5.89,0,10-4.62,10-10.27v-.1a10.06,10.06,0,0,0-10.07-10.37,10.28,10.28,0,0,0-3.56.62c-1.06-.39-1.11-.39-.06,0A10.48,10.48,0,0,1,832.36,326.41Z"/>
          <path class="cls-20" d="M829,309.22c-.51,0-1,0-1.49.06a18.3,18.3,0,0,1,0,34c.46,0,.93.06,1.4.06,10.26,0,17.72-7.69,17.72-17.07v-.09C846.6,316.81,839.24,309.22,829,309.22Z"/>
          <path class="cls-21" d="M811.26,326.41v0Z"/>
          <path class="cls-22" d="M825.44,336Z"/>
          <path class="cls-23" d="M825.44,336Z"/>
          <path class="cls-24" d="M821.81,336.88a10.6,10.6,0,0,0,3.92-.75l-.29-.1h0a10.21,10.21,0,0,1-6.8-9.75v-.09a10.05,10.05,0,0,1,6.68-9.66l-.06,0a10.62,10.62,0,0,0-3.45-.57,10.51,10.51,0,0,0-10.55,10.45v.19A10.51,10.51,0,0,0,821.81,336.88Z"/>
          <path class="cls-25" d="M821.81,336.88a10.6,10.6,0,0,0,3.92-.75l-.29-.1h0a10.21,10.21,0,0,1-6.8-9.75v-.09a10.05,10.05,0,0,1,6.68-9.66l-.06,0a10.62,10.62,0,0,0-3.45-.57,10.51,10.51,0,0,0-10.55,10.45v.19A10.51,10.51,0,0,0,821.81,336.88Z"/>
        </g>
      </g>
      <g id="brazoDerecho">
        <path class="cls-26" d="M899,318.29c-4.15,14.33-.86,27.85,7.34,30.19s18.21-7.4,22.35-21.73.87-27.86-7.33-30.19S903.1,304,899,318.29Z"/>
        <path class="cls-27" d="M908.91,344.93a.52.52,0,1,0,.05-1,6,6,0,0,1-4.82-3.35c-3.41-5.81-2.75-16.78,1.53-25.51,5.11-10.44,13.28-14.61,17.93-12.48a.52.52,0,1,0,.43-.94c-5.83-2.67-14.49,3.14-19.3,13-4.42,9-5.06,20.4-1.49,26.48a7,7,0,0,0,5.66,3.86Z"/>
        <g>
          <path class="cls-5" d="M953.81,371.76c-3.45-41.83-18-61.3-21.46-65.41a3.48,3.48,0,0,0-2-1.17c-2.89-.55-10.52-.74-19.29,9.17-6.07,6.84-5.83,19.16-5.45,19.81,4,6.71,29.27,49,35.61,63.14C948.11,412.71,955.28,389.64,953.81,371.76Z"/>
          <path class="cls-6" d="M911,314.39a34.21,34.21,0,0,1,8-6.86c-.91.86-1.85,1.81-2.8,2.88-7.65,8.64-5.37,15.43-3.66,20.08,6.11,16.7,25.44,48.64,29,67.71-.14-.27-.28-.56-.41-.87-6.34-14.17-31.59-56.43-35.61-63.13C905.19,333.55,905,321.23,911,314.39Z"/>
          <path class="cls-7" d="M934,321.12c17.56,16.23,16.94,66,16.94,66s-8.48-35.4-16.39-50.71S928,315.58,934,321.12Z"/>
          <path class="cls-6" d="M937.41,388.8c-.26,2.87-.2,5.28-.68,7.11-.16.64-3.72,3.38-3.71,3,.14-3-.58-18.73-2.95-23C929.23,374.44,937.67,385.93,937.41,388.8Z"/>
          <path class="cls-8" d="M929.67,376.4a.46.46,0,0,0,.4-.23c4.63-7.35,14.2-12.82,22.83-8.49a.49.49,0,0,0,.65-.21.47.47,0,0,0-.22-.64c-9.13-4.59-19.22,1.12-24.07,8.84a.46.46,0,0,0,.15.65A.5.5,0,0,0,929.67,376.4Z"/>
        </g>
        <g>
          <path class="cls-28" d="M923.84,333c.21,7.08,5.61,12.67,12,12.48s11.48-6.1,11.26-13.19-5.61-12.68-12-12.48S923.62,325.88,923.84,333Z"/>
          <g>
            <path class="cls-29" d="M943.46,333.71c.16,2.39-1.19,4.88-2.57,6.78a24.36,24.36,0,0,1-2.8,3.2s-7.43-1.89-9.48-6.12c-.42-.89-2.37-6.43-2.37-6.43s-.59-1.35.51-2a32.81,32.81,0,0,0,3.77-2.12,11,11,0,0,1,2.51-1.6c.71-.25,1-.11,2.33,0a41.29,41.29,0,0,0,4.43-.11c1.31,0,1.47,1.45,1.47,1.45S943.39,332.71,943.46,333.71Z"/>
            <path class="cls-30" d="M941.26,326.79s2.13,5.92,2.2,6.92c.31,4.77-5.37,10-5.37,10h0s-7.43-1.89-9.48-6.12c-.42-.89-2.37-6.44-2.37-6.44s-.59-1.34.51-1.95a34.39,34.39,0,0,0,3.77-2.12,11,11,0,0,1,2.51-1.6c.71-.25,1-.11,2.33,0a44.16,44.16,0,0,0,4.43-.11C941.1,325.3,941.26,326.79,941.26,326.79Zm-1.17-.24-1.09,0a12.54,12.54,0,0,1-3.42,0c-2.35-.44-3.08.74-4.21,1.55a22.47,22.47,0,0,1-2.89,1.67l-.94.49a.86.86,0,0,0,.05.27.19.19,0,0,1,0,.08c.75,2.12,2,5.71,2.33,6.31.88,1.84,3.12,3.19,4.84,4a25.73,25.73,0,0,0,2.88,1.13,24.24,24.24,0,0,0,2-2.39c1.11-1.54,2.44-4.09,2.31-6.15a44.49,44.49,0,0,0-1.79-6.7C940.18,326.82,940.09,326.55,940.09,326.55Z"/>
            <path class="cls-31" d="M943.46,333.71c.19,2.77-1.65,5.69-3.23,7.64,1.44-1.93,2.89-4.52,2.73-7-.07-1-2.2-6.91-2.2-6.91s-.16-1.5-1.47-1.47a38.84,38.84,0,0,1-4.43.11c-1.3-.09-1.62-.23-2.33,0a11,11,0,0,0-2.51,1.6,34.39,34.39,0,0,1-3.77,2.12l-.1.07a1.23,1.23,0,0,1,.6-.71,34.39,34.39,0,0,0,3.77-2.12,11,11,0,0,1,2.51-1.6c.71-.26,1-.11,2.33,0a38.84,38.84,0,0,0,4.43-.11c1.31,0,1.47,1.47,1.47,1.47S943.39,332.71,943.46,333.71Z"/>
            <path class="cls-30" d="M936.05,333.84a.45.45,0,0,1-.11.43l.09.35a.1.1,0,0,1-.07.12l-.28.07a.11.11,0,0,1-.12-.07l-.09-.35a.44.44,0,0,1-.31-.32.46.46,0,1,1,.89-.23Z"/>
            <path class="cls-30" d="M936.05,331.47l.18.68-2.06.53L934,332a1.06,1.06,0,0,1,.75-1.3A1.08,1.08,0,0,1,936.05,331.47Z"/>
            <path class="cls-30" d="M939.78,328.44s1.3,4.36,1.35,5.1c.27,3.55-3.7,7.64-3.7,7.64h0s-5.27-1.47-6.76-4.64c-.31-.67-1.75-4.82-1.75-4.82s-.43-1,.34-1.45a21.81,21.81,0,0,0,2.65-1.53c.46-.34.87-.61,1.21-.82a5.76,5.76,0,0,1,.75-.41h0a2.77,2.77,0,0,1,1.55-.12,24.52,24.52,0,0,0,3.12,0C939.46,327.35,939.78,328.44,939.78,328.44Zm-1.89,3.87a.58.58,0,0,0-.71-.41l-.15,0-.18-.68a1.9,1.9,0,1,0-3.67,1l.18.68-.15,0a.58.58,0,0,0-.41.71l.71,2.65a.58.58,0,0,0,.7.41l4-1a.57.57,0,0,0,.41-.7Z"/>
            <path class="cls-31" d="M941.13,333.55c.2,2.54-1.8,5.37-2.94,6.76,1.14-1.51,2.61-3.93,2.44-6.12-.06-.75-1.35-5.11-1.35-5.11S939,328,938.05,328a22.91,22.91,0,0,1-3.12,0,2.94,2.94,0,0,0-1.55.13h0a5.76,5.76,0,0,0-.75.41c-.34.21-.76.48-1.21.82a18.94,18.94,0,0,1-2.59,1.49.9.9,0,0,1,.44-.6,23.21,23.21,0,0,0,2.65-1.53c.45-.34.87-.61,1.21-.82a5.76,5.76,0,0,1,.75-.41h0a2.94,2.94,0,0,1,1.55-.13,24.65,24.65,0,0,0,3.12,0c.91,0,1.23,1.08,1.23,1.08S941.07,332.8,941.13,333.55Z"/>
          </g>
        </g>
      </g>
      <g id="cabeza">
        <g>
          <path class="cls-5" d="M906.55,263.62c-13.74,17.55-55.78,14.2-67.49,13.1s-31.56-3.14-38.71-24.54-3.57-54,16.08-71,72.25-14.21,90.12,8.67S911.31,257.53,906.55,263.62Z"/>
          <path class="cls-16" d="M902.92,194.5c-.79-.27-17-12.8-46.42-15.3-10.12-.86-25.89,0-36,1.4,1-1.06,15.54-9.4,45.53-6.3C873.34,175.06,890.3,179.6,902.92,194.5Z"/>
          <path class="cls-7" d="M849.47,189.32c9.46.15,18.95.82,27.87,4.18l.2.08c-9.26,19.46-10,44.82-4.59,62.95a38.11,38.11,0,0,0,7.88,14.7c-16.36,2.86-34.66,1.37-41.77.7-7.75-.74-19.06-1.88-27.89-8.76a43.14,43.14,0,0,1-2.56-6.64c-5.5-18.37-4.64-44.15,5-63.71A154,154,0,0,1,849.47,189.32Z"/>
          <path class="cls-32" d="M883.69,206.6c-5.45-7.36-20.32-9.29-39-10.39-24-1.42-32.17,2.9-34.62,5.65s-6.72,16.46-5.8,29.78,1.06,17.32,6.58,20.62,21.47,6.56,31.77,6.81c19.52.47,29.35-.48,35.88-4.28,3.34-1.94,7.58-12.42,8.24-25.34S886.52,210.42,883.69,206.6Z"/>
          <path class="cls-33" d="M845.41,198.27c11.57.66,21.63,1.65,28.7,4.14-6.19,17-6.23,37.26-1.63,52.22,0,.17.11.33.17.5-6.19,1.78-15,2.2-29.23,1.87-9.89-.23-25.18-3.26-30.48-6.36a9.36,9.36,0,0,1-4.15-4.29A88.41,88.41,0,0,1,811.85,204a4,4,0,0,1,.34-.43C814.54,201,822.34,196.94,845.41,198.27Z"/>
          <path class="cls-9" d="M896.33,218.84c.32,7.23,4.39,12.93,9.09,12.72s8.25-6.24,7.92-13.47-4.39-12.93-9.09-12.72S896,211.61,896.33,218.84Z"/>
          <path class="cls-34" d="M900.05,218.3c.23,5.07,2.72,9.09,5.57,9s5-4.34,4.74-9.42-2.72-9.09-5.57-9S899.82,213.22,900.05,218.3Z"/>
          <path class="cls-27" d="M900,218.68l.48,0-.48,0a17.67,17.67,0,0,1,2.14-9.63c1.58-2.69,3.8-4.23,6.24-4.34,4.94-.22,9.26,5.69,9.6,13.17s-3.43,13.76-8.38,14h-.27C904.46,231.86,900.3,226,900,218.68Zm8.42-13c-2.1.1-4,1.47-5.44,3.87a16.7,16.7,0,0,0-2,9.1c.32,7,4.17,12.45,8.6,12.27s7.77-6,7.46-13-4-12.27-8.37-12.27Z"/>
          <path class="cls-7" d="M909,235.6l-3.45.12s-1.47,14.21-5.6,22.56-10,11-10,11,8.83-2.83,14.12-13.66C907.88,247.85,909,235.6,909,235.6Z"/>
          <path class="cls-35" d="M880.45,207.69v0a1.84,1.84,0,0,1-2.63.62c-1.68-1.14-4.23-2.84-5.7-3.64-2.32-1.25-13.8-5.46-13.8-5.46s11.5.24,21.27,5.51A2.15,2.15,0,0,1,880.45,207.69Z"/>
        </g>
        <path class="cls-36" d="M889.47,217.17c0,2.25,1,4.07,2.35,4.07s2.35-1.82,2.35-4.07-1.06-4.06-2.35-4.06S889.47,214.93,889.47,217.17Z"/>
      </g>
      <g id="ojos">
        <g>
          <rect class="cls-37" x="844.99" y="211.66" width="16.58" height="21.49" rx="5.9" transform="translate(1706.57 444.81) rotate(180)"/>
          <rect class="cls-37" x="846.73" y="213.97" width="13.1" height="16.87" rx="5.9" transform="translate(1706.57 444.81) rotate(180)"/>
          <rect class="cls-38" x="848.54" y="216.14" width="9.09" height="13.14" rx="3.66" transform="translate(1706.17 445.41) rotate(180)"/>
          <path class="cls-39" d="M849.51,221.2H857a.36.36,0,1,0,0-.72h-7.46a.36.36,0,1,0,0,.72Z"/>
          <path class="cls-39" d="M849.51,222.76H857a.36.36,0,1,0,0-.71h-7.46a.36.36,0,1,0,0,.71Z"/>
          <path class="cls-39" d="M849.51,224.39H857a.36.36,0,1,0,0-.72h-7.46a.36.36,0,1,0,0,.72Z"/>
          <path class="cls-39" d="M850.46,218.2H856a.36.36,0,0,0,0-.72h-5.56a.36.36,0,0,0,0,.72Z"/>
          <path class="cls-39" d="M849.51,219.82H857a.37.37,0,0,0,.37-.36.37.37,0,0,0-.37-.36h-7.46a.37.37,0,0,0-.37.36A.37.37,0,0,0,849.51,219.82Z"/>
          <path class="cls-39" d="M849.51,226.32H857a.36.36,0,1,0,0-.72h-7.46a.36.36,0,1,0,0,.72Z"/>
          <path class="cls-39" d="M849.51,227.88H857a.37.37,0,0,0,.37-.36.37.37,0,0,0-.37-.36h-7.46a.37.37,0,0,0-.37.36A.37.37,0,0,0,849.51,227.88Z"/>
        </g>
        <g>
          <rect class="cls-37" x="815.22" y="211.27" width="16.58" height="21.49" rx="5.9" transform="translate(1647.02 444.03) rotate(-180)"/>
          <rect class="cls-37" x="816.96" y="213.58" width="13.1" height="16.87" rx="5.9" transform="translate(1647.02 444.03) rotate(-180)"/>
          <rect class="cls-38" x="818.76" y="215.75" width="9.09" height="13.14" rx="3.66" transform="translate(1646.62 444.63) rotate(180)"/>
          <path class="cls-39" d="M819.73,220.81h7.47a.36.36,0,1,0,0-.72h-7.47a.36.36,0,1,0,0,.72Z"/>
          <path class="cls-39" d="M819.73,222.38h7.47a.36.36,0,0,0,0-.72h-7.47a.36.36,0,0,0,0,.72Z"/>
          <path class="cls-39" d="M819.73,224h7.47a.36.36,0,1,0,0-.72h-7.47a.36.36,0,1,0,0,.72Z"/>
          <path class="cls-39" d="M820.68,217.81h5.57a.36.36,0,1,0,0-.72h-5.57a.36.36,0,1,0,0,.72Z"/>
          <path class="cls-39" d="M819.73,219.43h7.47a.36.36,0,1,0,0-.71h-7.47a.36.36,0,1,0,0,.71Z"/>
          <path class="cls-39" d="M819.73,225.93h7.47a.36.36,0,1,0,0-.72h-7.47a.36.36,0,1,0,0,.72Z"/>
          <path class="cls-39" d="M819.73,227.49h7.47a.36.36,0,1,0,0-.71h-7.47a.36.36,0,1,0,0,.71Z"/>
        </g>
      </g>
      <path id="boca" class="cls-40" d="M849.83,244.18c-7.48.94-20.9,1.68-20.9,1.68s11.87,1.19,19.61-.13S857.88,243.16,849.83,244.18Z"/>
    </g>
  </g>
</svg>
