<svg xmlns="http://www.w3.org/2000/svg" xmlns:xlink="http://www.w3.org/1999/xlink" width="1024" height="620" viewBox="0 0 1024 620">
  <defs>
    <style>
      .cls-1 {
        isolation: isolate;
      }

      .cls-2 {
        fill: none;
      }

      .cls-3, .cls-4 {
        fill: #51b2fb;
      }

      .cls-3, .cls-37 {
        opacity: 0.1;
      }

      .cls-4 {
        opacity: 0.2;
      }

      .cls-5 {
        fill: #e3ebfc;
      }

      .cls-6 {
        fill: #ccddfa;
      }

      .cls-7 {
        fill: #fafbff;
      }

      .cls-8 {
        fill: #80a7f6;
      }

      .cls-9 {
        fill: #9fbcfb;
      }

      .cls-10 {
        fill: #b8d0f9;
      }

      .cls-11, .cls-27, .cls-36 {
        fill: #207bff;
      }

      .cls-11, .cls-28 {
        opacity: 0.4;
      }

      .cls-12 {
        fill: #004bff;
        opacity: 0.5;
        mix-blend-mode: multiply;
      }

      .cls-13 {
        fill: #c5d8fa;
      }

      .cls-14 {
        fill: url(#_ÂÁ_Ï_ÌÌ_È_ËÂÌÚ_30);
      }

      .cls-15 {
        fill: #4aebff;
      }

      .cls-16, .cls-35 {
        fill: #fff;
      }

      .cls-17 {
        fill: #bef9ff;
      }

      .cls-18 {
        fill: url(#linear-gradient);
      }

      .cls-19 {
        fill: #ec1c24;
      }

      .cls-20 {
        fill: url(#linear-gradient-2);
      }

      .cls-21 {
        fill: url(#linear-gradient-3);
      }

      .cls-22 {
        fill: url(#linear-gradient-4);
      }

      .cls-23 {
        fill: url(#linear-gradient-5);
      }

      .cls-24 {
        fill: url(#linear-gradient-6);
      }

      .cls-25 {
        fill: url(#linear-gradient-7);
      }

      .cls-26 {
        fill: #93b4fb;
      }

      .cls-28 {
        mix-blend-mode: lighten;
        fill: url(#radial-gradient);
      }

      .cls-29 {
        fill: #00ffda;
      }

      .cls-30 {
        fill: #7fd1ca;
      }

      .cls-31 {
        fill: #1e1e1e;
      }

      .cls-32 {
        fill: url(#_ÂÁ_Ï_ÌÌ_È_ËÂÌÚ_14);
      }

      .cls-33 {
        fill: url(#_ÂÁ_Ï_ÌÌ_È_ËÂÌÚ_18);
      }

      .cls-34 {
        fill: #4880f8;
      }

      .cls-35 {
        opacity: 0.8;
      }

      .cls-36 {
        opacity: 0.72;
      }

      .cls-37, .cls-38, .cls-39, .cls-40 {
        fill: #3ae6fb;
      }

      .cls-38 {
        opacity: 0.3;
      }

      .cls-40 {
        opacity: 0.7;
      }
    </style>
    <radialGradient id="_ÂÁ_Ï_ÌÌ_È_ËÂÌÚ_30" data-name="¡ÂÁ˚ÏˇÌÌ˚È „‡‰ËÂÌÚ 30" cx="4474.49" cy="490.4" r="7.37" gradientTransform="translate(-4284.51)" gradientUnits="userSpaceOnUse">
      <stop offset="0" stop-color="#4aebff"/>
      <stop offset="1" stop-color="#00709e"/>
    </radialGradient>
    <linearGradient id="linear-gradient" x1="156.89" y1="361.66" x2="156.89" y2="402.3" gradientTransform="translate(45.19)" gradientUnits="userSpaceOnUse">
      <stop offset="0.02" stop-color="#dd2a21"/>
      <stop offset="0.06" stop-color="#c8201b"/>
      <stop offset="0.1" stop-color="#b71717"/>
      <stop offset="0.15" stop-color="#ac1113"/>
      <stop offset="0.22" stop-color="#a50e12"/>
      <stop offset="0.43" stop-color="#a30d11"/>
      <stop offset="0.79" stop-color="#6b0006"/>
    </linearGradient>
    <linearGradient id="linear-gradient-2" x1="145.09" y1="363.47" x2="145.09" y2="392.64" gradientTransform="translate(45.19)" gradientUnits="userSpaceOnUse">
      <stop offset="0" stop-color="#ad1a27"/>
      <stop offset="0.08" stop-color="#9e151f"/>
      <stop offset="0.28" stop-color="#7d090e"/>
      <stop offset="0.44" stop-color="#680304"/>
      <stop offset="0.56" stop-color="#610000"/>
      <stop offset="0.73" stop-color="#520000"/>
      <stop offset="1" stop-color="#3f0000"/>
    </linearGradient>
    <linearGradient id="linear-gradient-3" x1="780.72" y1="378.49" x2="800.14" y2="378.49" gradientTransform="matrix(-1, 0, 0, 1, 1015.73, 0)" gradientUnits="userSpaceOnUse">
      <stop offset="0" stop-color="#be1349"/>
      <stop offset="0.24" stop-color="#be124e"/>
      <stop offset="0.25" stop-color="#be124e"/>
      <stop offset="1" stop-color="#7a0025"/>
    </linearGradient>
    <linearGradient id="linear-gradient-4" x1="774.98" y1="388.18" x2="800.22" y2="388.18" gradientTransform="matrix(-1, 0, 0, 1, 1015.73, 0)" gradientUnits="userSpaceOnUse">
      <stop offset="0" stop-color="#282881"/>
      <stop offset="0.27" stop-color="#26257d"/>
      <stop offset="0.55" stop-color="#1f1b70"/>
      <stop offset="0.84" stop-color="#150c5b"/>
      <stop offset="1" stop-color="#0d004c"/>
    </linearGradient>
    <linearGradient id="linear-gradient-5" x1="780.95" y1="388.18" x2="800.14" y2="388.18" xlink:href="#linear-gradient-3"/>
    <linearGradient id="linear-gradient-6" x1="784.84" y1="378.41" x2="808.95" y2="378.41" xlink:href="#linear-gradient-4"/>
    <linearGradient id="linear-gradient-7" x1="163.49" y1="387.22" x2="163.49" y2="373.41" gradientTransform="translate(45.19)" gradientUnits="userSpaceOnUse">
      <stop offset="0" stop-color="#ed2d24"/>
      <stop offset="0.12" stop-color="#ed2824"/>
      <stop offset="0.25" stop-color="#ec1c24"/>
      <stop offset="1" stop-color="#74020d"/>
    </linearGradient>
    <radialGradient id="radial-gradient" cx="3010.59" cy="636.18" r="15.61" gradientTransform="matrix(0.74, 0.02, -0.03, 0.82, -2121.15, -206.49)" gradientUnits="userSpaceOnUse">
      <stop offset="0" stop-color="#00ddde" stop-opacity="0.52"/>
      <stop offset="0.09" stop-color="#2de6e7" stop-opacity="0.65"/>
      <stop offset="0.2" stop-color="#63f1f1" stop-opacity="0.8"/>
      <stop offset="0.3" stop-color="#8af8f9" stop-opacity="0.91"/>
      <stop offset="0.38" stop-color="#a2fdfd" stop-opacity="0.98"/>
      <stop offset="0.43" stop-color="#abffff"/>
      <stop offset="0.46" stop-color="#9ffcfd"/>
      <stop offset="0.51" stop-color="#7ff6f6"/>
      <stop offset="0.58" stop-color="#4aebeb"/>
      <stop offset="0.66" stop-color="#03dcdd"/>
      <stop offset="0.66" stop-color="#00dbdc"/>
      <stop offset="0.69" stop-color="#08dcdd" stop-opacity="0.97"/>
      <stop offset="0.74" stop-color="#1fdfe0" stop-opacity="0.88"/>
      <stop offset="0.8" stop-color="#44e5e5" stop-opacity="0.73"/>
      <stop offset="0.87" stop-color="#78eced" stop-opacity="0.53"/>
      <stop offset="0.94" stop-color="#baf5f6" stop-opacity="0.27"/>
      <stop offset="1" stop-color="#fff" stop-opacity="0"/>
    </radialGradient>
    <linearGradient id="_ÂÁ_Ï_ÌÌ_È_ËÂÌÚ_14" data-name="¡ÂÁ˚ÏˇÌÌ˚È „‡‰ËÂÌÚ 14" x1="4381.87" y1="489.42" x2="4463.9" y2="489.42" gradientTransform="translate(-4259.86 13.43) rotate(-2.88)" gradientUnits="userSpaceOnUse">
      <stop offset="0" stop-color="#003a6b"/>
      <stop offset="1" stop-color="#00204c"/>
    </linearGradient>
    <linearGradient id="_ÂÁ_Ï_ÌÌ_È_ËÂÌÚ_18" data-name="¡ÂÁ˚ÏˇÌÌ˚È „‡‰ËÂÌÚ 18" x1="4448.23" y1="245.51" x2="4489.79" y2="315.53" gradientTransform="translate(-4284.51)" gradientUnits="userSpaceOnUse">
      <stop offset="0" stop-color="#cbd7e1"/>
      <stop offset="0.05" stop-color="#aec0d0"/>
      <stop offset="0.15" stop-color="#7998b2"/>
      <stop offset="0.26" stop-color="#4e7698"/>
      <stop offset="0.35" stop-color="#2c5c85"/>
      <stop offset="0.44" stop-color="#144976"/>
      <stop offset="0.53" stop-color="#053e6e"/>
      <stop offset="0.6" stop-color="#003a6b"/>
      <stop offset="1" stop-color="#00204c"/>
    </linearGradient>
  </defs>
  <title>robot</title>
  <g class="cls-1">
    <g id="prosabot">
      <g id="fondo">
        <rect class="cls-2" width="1024" height="620"/>
      </g>
      <g id="sombra">
        <ellipse class="cls-3" cx="170.22" cy="532.73" rx="59.12" ry="13.27"/>
        <ellipse class="cls-4" cx="170.22" cy="532.73" rx="46.05" ry="8.44"/>
        <path class="cls-4" d="M198,532.73c0,2.8-12.41,5.08-27.73,5.08s-27.72-2.28-27.72-5.08,12.41-5.08,27.72-5.08S198,529.92,198,532.73Z"/>
      </g>
      <g id="brazoIzquierdo">
        <g>
          <path class="cls-5" d="M287.68,356.26c-35.69,22.07-59.94,22-65.28,21.68a3.43,3.43,0,0,1-2.11-.89c-2.15-2-6.8-8-4-20.85,1.94-8.91,12-16,12.74-16.11,7.76-.76,56.64-5.68,71.78-9C317.28,327.41,302.93,346.82,287.68,356.26Z"/>
          <path class="cls-6" d="M216.3,356.14a34.05,34.05,0,0,0-.8,10.46c.15-1.24.36-2.55.67-4,2.44-11.23,9.25-13.44,14-14.84,17-5,54.13-8.55,71.59-17l-.94.18c-15.14,3.36-64,8.27-71.78,9C228.29,340.11,218.24,347.23,216.3,356.14Z"/>
          <path class="cls-7" d="M235.28,370.52c23.4,4.4,63.11-25.66,63.11-25.66s-33.48,14.24-50.46,17S227.29,369,235.28,370.52Z"/>
          <path class="cls-6" d="M291.73,333.05c2.16-1.91,4.14-3.29,5.33-4.76.41-.51.52-5,.26-4.77-2.33,1.88-15.42,10.65-20.25,11.29C275.36,335,289.58,335,291.73,333.05Z"/>
          <path class="cls-8" d="M277.19,334.23a.47.47,0,0,1,.06.46c-3.19,8.06-2,18.95,6.61,23.27a.47.47,0,0,1,.21.64.48.48,0,0,1-.64.21c-9.08-4.57-10.41-16-7.07-24.48a.48.48,0,0,1,.62-.26A.42.42,0,0,1,277.19,334.23Z"/>
        </g>
        <path class="cls-9" d="M230.52,360.07c-1.11,12.82-6.48,22.83-12,22.35s-9.08-11.26-8-24.08,6.47-22.65,12-22.36C230.53,336.4,231.63,347.24,230.52,360.07Z"/>
      </g>
      <g id="torso">
        <path class="cls-5" d="M116.77,331.6c-5.73-.37-25.92,19.88-19.84,39.53s40.48,85.21,48.27,108.17,12.46,28.61,23.54,30.69,27.82,2.85,47.23-37.68,22.4-86,23.28-107.67-1.38-30.21-8.94-32.67C212.68,326.21,116.77,331.6,116.77,331.6Z"/>
        <path class="cls-7" d="M208.14,467.54c15.05-42.64,13.24-88.46,11.84-110.18-.93-14.43-2.63-22.95-6-27.52-16-.9-39.44-.51-59.29.13,10.61,28,26.3,75.13,28.91,123.68,1.74,32.4-2.74,48.23-8.93,56.33C184.81,508,196.94,499.26,208.14,467.54Z"/>
        <path class="cls-10" d="M232,333.77c0,4.2-29.68,10.72-59.63,10.77S112.7,338.16,112.69,334s29.69-4.58,59.64-4.63S232,329.57,232,333.77Z"/>
        <path class="cls-11" d="M213.88,334.62c0,2.91-20.44,7.42-41.08,7.46s-41.09-4.41-41.1-7.32,20.46-3.17,41.09-3.21S213.88,331.72,213.88,334.62Z"/>
        <path class="cls-12" d="M201.33,336.13c0,1.11-14.1,2.52-27.85,2.55s-26.9-1.35-26.9-2.46,13.15-1.55,26.9-1.57S201.33,335,201.33,336.13Z"/>
        <path class="cls-13" d="M157.52,484.05c-3.18-17.19-7.92-73.37-19.22-113-5.66-19.87-19-33.89-31.88-29.45-9.16,3.15-12.78,18.93-9.49,29.56,6.08,19.64,40.48,85.21,48.27,108.17s12.46,28.61,23.54,30.69c5.71,1.07,12.92,1.78,21.22-3.31C178.73,508.45,162.79,512.5,157.52,484.05Z"/>
        <path class="cls-14" d="M197.17,492.41a20.31,20.31,0,0,1-6.83,1.13,31,31,0,0,1-7.63-.56c-1.43-.36-2.67-1.28-2.67-2.84h0a2.77,2.77,0,0,1,2.68-2.83s5.87.66,7.3.64a52.27,52.27,0,0,0,7.41-.69c1.47,0,2.85.43,2.41,2.54C199.63,490.78,199,491.75,197.17,492.41Z"/>
        <path class="cls-15" d="M196.23,492.1a20.88,20.88,0,0,1-5.9.8,33.08,33.08,0,0,1-6.6-.4c-1.23-.26-2.31-.91-2.31-2h0a2.19,2.19,0,0,1,2.31-2s5.08.47,6.32.46a53.3,53.3,0,0,0,6.41-.5c1.27,0,2.46.31,2.07,1.82C198.36,490.93,197.77,491.63,196.23,492.1Z"/>
        <path class="cls-8" d="M188.69,479.45c-13.49,0-30-2.92-47.88-10.25a.48.48,0,0,1,.36-.89c33.25,13.67,61.86,11.93,74.37,4.54a.48.48,0,1,1,.49.82C210.08,477.19,200.57,479.45,188.69,479.45Z"/>
        <path class="cls-16" d="M188.34,478.39c-13.49,0-30-2.93-47.88-10.26a.48.48,0,0,1,.36-.89c33.25,13.67,61.86,11.94,74.37,4.54a.49.49,0,0,1,.66.17.47.47,0,0,1-.17.65C209.73,476.12,200.22,478.39,188.34,478.39Z"/>
        <path class="cls-7" d="M236.73,342.68c2.56,52-4.94,76.55-4.94,76.55S239,380,232.35,342C231.44,336.82,236.34,334.56,236.73,342.68Z"/>
        <path class="cls-16" d="M117.27,339.05s5.91,3.56,27.53,5.57,50.07,1.62,50.07,1.62-26.23,3.48-50.18.9S117.27,339.05,117.27,339.05Z"/>
        <path class="cls-17" d="M193.51,488.75c-1,.09-2.27.16-3.46.17s-6.32-.46-6.32-.46a2.52,2.52,0,0,0-.48.05l2.33,4.25a44.36,44.36,0,0,0,4.75.14,21.25,21.25,0,0,0,5.49-.7Z"/>
        <g>
          <path class="cls-18" d="M188.31,378.28a18.34,18.34,0,0,1,11.45-17,19.6,19.6,0,0,1,2,.26,16.89,16.89,0,0,1,14,16.1c0,.18,0,.36,0,.55v.19h0a10.49,10.49,0,0,0-13.9-9.88c1-.37,1-.37-.06,0a10.11,10.11,0,0,0-3.53-.62c-5.85,0-10,4.72-10,10.37v.1c0,5.65,4.05,10.27,9.9,10.27a10,10,0,0,0,3.22-.52,10.46,10.46,0,0,0,14.35-9.55,16.73,16.73,0,0,1-14,16.45,20.86,20.86,0,0,1-2.14.26A18.35,18.35,0,0,1,188.31,378.28Z"/>
          <path class="cls-19" d="M194.92,378.41a10.47,10.47,0,0,0,6.59,9.72,10,10,0,0,1-3.22.52c-5.85,0-9.9-4.62-9.9-10.27v-.1c0-5.65,4.14-10.37,10-10.37a10.11,10.11,0,0,1,3.53.62c1.06-.39,1.1-.39.06,0A10.48,10.48,0,0,0,194.92,378.41Z"/>
          <path class="cls-20" d="M198.29,361.22q.74,0,1.47.06a18.35,18.35,0,0,0,0,34c-.46,0-.92.06-1.39.06-10.18,0-17.58-7.69-17.58-17.07v-.09C180.8,368.81,188.1,361.22,198.29,361.22Z"/>
          <path class="cls-21" d="M215.87,378.41c0,.06,0,.11,0,.17s0-.12,0-.19Z"/>
          <path class="cls-22" d="M201.8,388c1.1.4,1.07.4,0,0Z"/>
          <path class="cls-23" d="M201.8,388c1.1.4,1.07.4,0,0Z"/>
          <path class="cls-24" d="M205.39,388.88a10.43,10.43,0,0,1-3.88-.75l.29-.1c1.07.4,1.1.4,0,0a10.21,10.21,0,0,0,6.74-9.75v-.09a10.06,10.06,0,0,0-6.62-9.66l.05,0a10.49,10.49,0,0,1,13.9,9.88c0,.07,0,.13,0,.19A10.46,10.46,0,0,1,205.39,388.88Z"/>
          <path class="cls-25" d="M205.39,388.88a10.43,10.43,0,0,1-3.88-.75l.29-.1c1.07.4,1.1.4,0,0a10.21,10.21,0,0,0,6.74-9.75v-.09a10.06,10.06,0,0,0-6.62-9.66l.05,0a10.49,10.49,0,0,1,13.9,9.88c0,.07,0,.13,0,.19A10.46,10.46,0,0,1,205.39,388.88Z"/>
        </g>
      </g>
      <g id="brazoDerecho">
        <path class="cls-26" d="M128.85,370.29c4.11,14.33.86,27.85-7.28,30.19s-18.07-7.4-22.19-21.73-.86-27.86,7.28-30.19S124.73,356,128.85,370.29Z"/>
        <path class="cls-27" d="M119,396.93a.51.51,0,0,1-.53-.48.52.52,0,0,1,.48-.55,5.93,5.93,0,0,0,4.78-3.35c3.39-5.81,2.74-16.78-1.51-25.51-5.07-10.44-13.18-14.61-17.79-12.48a.52.52,0,1,1-.43-.94c5.79-2.67,14.38,3.14,19.15,13,4.39,9,5,20.4,1.48,26.48a7,7,0,0,1-5.61,3.86Z"/>
        <g>
          <path class="cls-5" d="M74.41,423.76c3.42-41.83,17.85-61.3,21.29-65.41a3.46,3.46,0,0,1,2-1.17c2.87-.55,10.44-.74,19.15,9.17,6,6.84,5.78,19.16,5.4,19.81-4,6.71-29,49-35.33,63.14C80.06,464.71,73,441.64,74.41,423.76Z"/>
          <path class="cls-6" d="M116.87,366.39a33.89,33.89,0,0,0-7.94-6.86c.91.86,1.84,1.81,2.78,2.88,7.59,8.64,5.33,15.43,3.63,20.08-6.06,16.7-25.24,48.64-28.8,67.71.13-.27.27-.56.41-.87,6.28-14.17,31.33-56.43,35.32-63.13C122.66,385.55,122.89,373.23,116.87,366.39Z"/>
          <path class="cls-7" d="M94,373.12c-17.42,16.23-16.8,66-16.8,66s8.41-35.4,16.26-50.71S100,367.58,94,373.12Z"/>
          <path class="cls-6" d="M90.68,440.8c.26,2.87.2,5.28.67,7.11.17.64,3.7,3.38,3.69,3-.14-3,.58-18.73,2.93-23C98.8,426.44,90.43,437.93,90.68,440.8Z"/>
          <path class="cls-8" d="M98.37,428.4a.48.48,0,0,1-.41-.23c-4.59-7.35-14.09-12.82-22.65-8.49a.48.48,0,0,1-.64-.21.47.47,0,0,1,.21-.64C84,414.24,94,420,98.77,427.67a.47.47,0,0,1-.15.65A.49.49,0,0,1,98.37,428.4Z"/>
        </g>
        <g>
          <path class="cls-28" d="M104.15,385c-.21,7.08-5.57,12.67-12,12.48S80.81,391.35,81,384.26s5.57-12.68,12-12.48S104.37,377.88,104.15,385Z"/>
          <g>
            <path class="cls-29" d="M84.68,385.71c-.16,2.39,1.18,4.88,2.55,6.78a24.29,24.29,0,0,0,2.78,3.2s7.37-1.89,9.4-6.12c.42-.89,2.36-6.43,2.36-6.43s.58-1.35-.51-2a32.61,32.61,0,0,1-3.74-2.12,11,11,0,0,0-2.49-1.6c-.71-.25-1-.11-2.32,0a40.6,40.6,0,0,1-4.39-.11c-1.3,0-1.45,1.45-1.45,1.45S84.75,384.71,84.68,385.71Z"/>
            <path class="cls-30" d="M86.87,378.79s-2.12,5.92-2.19,6.92c-.31,4.77,5.33,10,5.33,10h0s7.38-1.89,9.4-6.12c.43-.89,2.36-6.44,2.36-6.44s.58-1.34-.51-1.95a34.19,34.19,0,0,1-3.74-2.12,11,11,0,0,0-2.49-1.6c-.71-.25-1-.11-2.32,0a43.42,43.42,0,0,1-4.39-.11C87,377.3,86.87,378.79,86.87,378.79Zm1.16-.24,1.08,0a12.32,12.32,0,0,0,3.39,0c2.33-.44,3,.74,4.17,1.55a21.74,21.74,0,0,0,2.88,1.67l.93.49a1.28,1.28,0,0,1,0,.27.19.19,0,0,0,0,.08c-.74,2.12-2,5.71-2.31,6.31-.88,1.84-3.1,3.19-4.81,4a25.64,25.64,0,0,1-2.85,1.13,23,23,0,0,1-2-2.39c-1.1-1.54-2.43-4.09-2.29-6.15a45.08,45.08,0,0,1,1.77-6.7C87.93,378.82,88,378.55,88,378.55Z"/>
            <path class="cls-31" d="M84.68,385.71c-.18,2.77,1.64,5.69,3.21,7.64-1.44-1.93-2.88-4.52-2.72-7,.07-1,2.19-6.91,2.19-6.91s.16-1.5,1.45-1.47a38.43,38.43,0,0,0,4.4.11c1.3-.09,1.61-.23,2.32,0A10.73,10.73,0,0,1,98,379.7a34.26,34.26,0,0,0,3.75,2.12l.09.07a1.21,1.21,0,0,0-.59-.71,33.29,33.29,0,0,1-3.74-2.12,11,11,0,0,0-2.49-1.6c-.71-.26-1-.11-2.32,0a38.19,38.19,0,0,1-4.39-.11c-1.3,0-1.46,1.47-1.46,1.47S84.75,384.71,84.68,385.71Z"/>
            <path class="cls-30" d="M92,385.84a.47.47,0,0,0,.11.43l-.09.35a.11.11,0,0,0,.07.12l.28.07a.09.09,0,0,0,.11-.07l.1-.35a.45.45,0,0,0,.31-.32.46.46,0,1,0-.89-.23Z"/>
            <path class="cls-30" d="M92,383.47l-.18.68,2,.53.18-.67a1.06,1.06,0,1,0-2-.54Z"/>
            <path class="cls-30" d="M88.33,380.44s-1.28,4.36-1.34,5.1c-.27,3.55,3.68,7.64,3.68,7.64h0s5.23-1.47,6.71-4.64c.31-.67,1.74-4.82,1.74-4.82s.43-1-.34-1.45a21.67,21.67,0,0,1-2.63-1.53c-.45-.34-.86-.61-1.2-.82a5.76,5.76,0,0,0-.75-.41h0a2.75,2.75,0,0,0-1.54-.12,24.23,24.23,0,0,1-3.1,0C88.65,379.35,88.33,380.44,88.33,380.44Zm1.88,3.87a.57.57,0,0,1,.7-.41l.15,0,.18-.68a1.88,1.88,0,1,1,3.64,1l-.18.68.15,0a.58.58,0,0,1,.4.71l-.69,2.65a.59.59,0,0,1-.7.41l-3.94-1a.57.57,0,0,1-.41-.7Z"/>
            <path class="cls-31" d="M87,385.55c-.2,2.54,1.79,5.37,2.92,6.76-1.13-1.51-2.59-3.93-2.42-6.12.05-.75,1.34-5.11,1.34-5.11s.31-1.09,1.22-1.08a22.62,22.62,0,0,0,3.1,0,2.89,2.89,0,0,1,1.53.13h0a5.76,5.76,0,0,1,.75.41,13.76,13.76,0,0,1,1.19.82,18.88,18.88,0,0,0,2.58,1.49.9.9,0,0,0-.44-.6,23.08,23.08,0,0,1-2.63-1.53c-.45-.34-.86-.61-1.2-.82a5.21,5.21,0,0,0-.74-.41h0a2.89,2.89,0,0,0-1.53-.13,24.17,24.17,0,0,1-3.09,0c-.92,0-1.23,1.08-1.23,1.08S87.05,384.8,87,385.55Z"/>
          </g>
        </g>
      </g>
      <g id="cabeza">
        <g>
          <path class="cls-5" d="M121.31,315.62c13.63,17.55,55.35,14.2,67,13.1s31.32-3.14,38.41-24.54,3.55-54-15.95-71S139,219,121.31,241.84,116.58,309.53,121.31,315.62Z"/>
          <path class="cls-16" d="M124.91,246.5c.78-.27,16.89-12.8,46.06-15.3,10-.86,25.69,0,35.74,1.4-1-1.06-15.43-9.4-45.19-6.3C154.26,227.06,137.43,231.6,124.91,246.5Z"/>
          <path class="cls-7" d="M178,241.32c-9.39.15-18.8.82-27.65,4.18l-.21.08c9.19,19.46,9.94,44.82,4.56,62.95a38.2,38.2,0,0,1-7.82,14.7c16.23,2.86,34.39,1.37,41.45.7,7.69-.74,18.91-1.88,27.68-8.76a44.2,44.2,0,0,0,2.54-6.64c5.45-18.37,4.6-44.15-4.93-63.71A151.69,151.69,0,0,0,178,241.32Z"/>
          <path class="cls-32" d="M144,258.6c5.41-7.36,20.17-9.29,38.66-10.39,23.85-1.42,31.92,2.9,34.36,5.65s6.66,16.46,5.76,29.78-1.06,17.32-6.54,20.62-21.3,6.56-31.52,6.81c-19.37.47-29.13-.48-35.61-4.28-3.31-1.94-7.52-12.42-8.18-25.34S141.18,262.42,144,258.6Z"/>
          <path class="cls-33" d="M182,250.27c-11.49.66-21.46,1.65-28.48,4.14,6.14,17,6.18,37.26,1.62,52.22-.06.17-.12.33-.17.5,6.14,1.78,14.92,2.2,29,1.87,9.8-.23,25-3.26,30.24-6.36a9.32,9.32,0,0,0,4.11-4.29,89,89,0,0,0-3-42.37,4,4,0,0,0-.34-.43C212.61,253,204.87,248.94,182,250.27Z"/>
          <path class="cls-9" d="M131.45,270.84c-.32,7.23-4.36,12.93-9,12.72s-8.19-6.24-7.86-13.47,4.36-12.93,9-12.72S131.77,263.61,131.45,270.84Z"/>
          <path class="cls-34" d="M127.76,270.3c-.23,5.07-2.7,9.09-5.53,9s-4.93-4.34-4.71-9.42,2.7-9.09,5.53-9S128,265.22,127.76,270.3Z"/>
          <path class="cls-27" d="M127.83,270.68l-.47,0,.47,0a17.75,17.75,0,0,0-2.12-9.63c-1.57-2.69-3.77-4.23-6.19-4.34-4.9-.22-9.19,5.69-9.53,13.17s3.4,13.76,8.32,14h.27C123.38,283.86,127.51,278,127.83,270.68Zm-8.35-13c2.08.1,4,1.47,5.4,3.87a16.79,16.79,0,0,1,2,9.1c-.31,7-4.14,12.45-8.53,12.27s-7.71-6-7.4-13,4-12.27,8.3-12.27Z"/>
          <path class="cls-7" d="M118.89,287.6l3.42.12s1.46,14.21,5.55,22.56,9.92,11,9.92,11-8.76-2.83-14-13.66C120,299.85,118.89,287.6,118.89,287.6Z"/>
          <path class="cls-35" d="M147.21,259.69v0a1.81,1.81,0,0,0,2.6.62c1.67-1.14,4.2-2.84,5.66-3.64,2.3-1.25,13.7-5.46,13.7-5.46s-11.42.24-21.12,5.51A2.16,2.16,0,0,0,147.21,259.69Z"/>
        </g>
        <path class="cls-36" d="M138.26,269.17c0,2.25-1,4.07-2.33,4.07s-2.34-1.82-2.34-4.07,1-4.06,2.34-4.06S138.26,266.93,138.26,269.17Z"/>
      </g>
      <g id="ojos">
        <g>
          <rect class="cls-37" x="165.94" y="263.66" width="16.45" height="21.49" rx="5.9"/>
          <rect class="cls-37" x="167.66" y="265.97" width="13" height="16.87" rx="5.9"/>
          <rect class="cls-38" x="169.85" y="268.14" width="9.02" height="13.14" rx="3.66"/>
          <path class="cls-39" d="M177.91,273.2H170.5a.36.36,0,0,1,0-.72h7.41a.36.36,0,0,1,0,.72Z"/>
          <path class="cls-39" d="M177.91,274.76H170.5a.36.36,0,1,1,0-.71h7.41a.36.36,0,1,1,0,.71Z"/>
          <path class="cls-39" d="M177.91,276.39H170.5a.36.36,0,0,1,0-.72h7.41a.36.36,0,0,1,0,.72Z"/>
          <path class="cls-39" d="M177,270.2h-5.52a.36.36,0,1,1,0-.72H177a.36.36,0,0,1,0,.72Z"/>
          <path class="cls-39" d="M177.91,271.82H170.5a.36.36,0,0,1-.36-.36.36.36,0,0,1,.36-.36h7.41a.36.36,0,0,1,.36.36A.36.36,0,0,1,177.91,271.82Z"/>
          <path class="cls-39" d="M177.91,278.32H170.5a.36.36,0,0,1,0-.72h7.41a.36.36,0,0,1,0,.72Z"/>
          <path class="cls-39" d="M177.91,279.88H170.5a.36.36,0,0,1-.36-.36.36.36,0,0,1,.36-.36h7.41a.36.36,0,0,1,.36.36A.36.36,0,0,1,177.91,279.88Z"/>
        </g>
        <g>
          <rect class="cls-37" x="195.48" y="263.27" width="16.45" height="21.49" rx="5.9"/>
          <rect class="cls-37" x="197.21" y="265.58" width="13" height="16.87" rx="5.9"/>
          <rect class="cls-38" x="199.4" y="267.75" width="9.02" height="13.14" rx="3.66"/>
          <path class="cls-39" d="M207.46,272.81h-7.41a.36.36,0,0,1,0-.72h7.41a.36.36,0,0,1,0,.72Z"/>
          <path class="cls-39" d="M207.46,274.38h-7.41a.36.36,0,0,1,0-.72h7.41a.36.36,0,1,1,0,.72Z"/>
          <path class="cls-39" d="M207.46,276h-7.41a.36.36,0,0,1,0-.72h7.41a.36.36,0,0,1,0,.72Z"/>
          <path class="cls-39" d="M206.52,269.81H201a.36.36,0,0,1,0-.72h5.53a.36.36,0,0,1,0,.72Z"/>
          <path class="cls-39" d="M207.46,271.43h-7.41a.36.36,0,1,1,0-.71h7.41a.36.36,0,1,1,0,.71Z"/>
          <path class="cls-39" d="M207.46,277.93h-7.41a.36.36,0,0,1,0-.72h7.41a.36.36,0,0,1,0,.72Z"/>
          <path class="cls-39" d="M207.46,279.49h-7.41a.36.36,0,1,1,0-.71h7.41a.36.36,0,1,1,0,.71Z"/>
        </g>
      </g>
      <path id="boca" class="cls-40" d="M177.59,296.18c7.43.94,20.74,1.68,20.74,1.68s-11.78,1.19-19.46-.13S169.6,295.16,177.59,296.18Z"/>
    </g>
  </g>
</svg>
